<svg xmlns="http://www.w3.org/2000/svg" viewBox="0 0 350.8 125.66"><defs><style>.cls-1,.cls-3{fill:#fff;}.cls-2{fill:#f5871f;}.cls-3{stroke:#f5871f;stroke-miterlimit:10;stroke-width:3px;}</style></defs><title>shapes</title><g id="Layer_2" data-name="Layer 2"><polyline class="cls-1" points="313.28 19.18 324.11 8.04 334.76 19.18 324.11 30.11 313.46 19.49"/><polyline class="cls-1" points="339.95 7.3 343.29 3.82 347.18 7.5 343.29 11.13 339.95 7.5"/><polygon class="cls-1" points="339.95 29.15 344 32.52 339.95 36.46 335.78 32.52 339.95 29.15"/></g><g id="Layer_1" data-name="Layer 1"><path class="cls-2" d="M343.29,4.63a10.06,10.06,0,0,0,2.87,2.87,10.09,10.09,0,0,0-2.87,2.88,10.09,10.09,0,0,0-2.87-2.88,10.06,10.06,0,0,0,2.87-2.87m-19.18,3.9a20.31,20.31,0,0,0,10.65,10.65,20.34,20.34,0,0,0-10.65,10.65,20.34,20.34,0,0,0-10.65-10.65A20.34,20.34,0,0,0,324.11,8.53M340,29.65a10.09,10.09,0,0,0,2.88,2.87A10.22,10.22,0,0,0,340,35.39a10.19,10.19,0,0,0-2.87-2.87A10.06,10.06,0,0,0,340,29.65M343.29,0l-.07.07a8.44,8.44,0,0,1-7.37,7.37l-.07.06.07.07a8.43,8.43,0,0,1,7.37,7.37l.07.07.07-.07a8.43,8.43,0,0,1,7.37-7.37l.07-.07-.07-.06A8.45,8.45,0,0,1,343.36.07L343.29,0ZM324.11,2.5l-.14.14A18.75,18.75,0,0,1,307.57,19l-.14.14.14.14A18.76,18.76,0,0,1,324,35.72l.14.14.14-.14a18.76,18.76,0,0,1,16.4-16.4l.14-.14-.14-.14a18.75,18.75,0,0,1-16.4-16.4l-.14-.14ZM340,25l-.06.06a8.45,8.45,0,0,1-7.38,7.38l-.06.06.06.07A8.44,8.44,0,0,1,339.89,40L340,40,340,40a8.43,8.43,0,0,1,7.38-7.37l.06-.07-.06-.06A8.45,8.45,0,0,1,340,25.08L340,25Z"/><path class="cls-2" d="M47.2,44.37a7.71,7.71,0,0,1,2.5,6,7.41,7.41,0,0,1-2.06,5.17,6.84,6.84,0,0,1-5.22,2.23,6.31,6.31,0,0,1-4.3-1.58,4.87,4.87,0,0,1-1.69-4.08q-2.93-.33-6.09,5.82a65.57,65.57,0,0,0-5.22,15.22,76.24,76.24,0,0,0-2.06,16.7q0,2.61.32,7.83H9.14a49.51,49.51,0,0,1-.33-5.22,96.84,96.84,0,0,1,.76-10.17q.77-6.69,1.63-13.1c.15-1.31.44-3.68.87-7.13a66.61,66.61,0,0,0,.65-7c0-1.89-.5-2.83-1.52-2.83Q8.38,52.2,6,60.79L0,59.05A34.56,34.56,0,0,1,4.84,47.3a11,11,0,0,1,9.73-5.22,9.5,9.5,0,0,1,6.58,2.29q2.57,2.28,2.56,7.61a54.71,54.71,0,0,1-1.09,9.68h.11q4-11.2,8.54-15.39t9.3-4.19A9.47,9.47,0,0,1,47.2,44.37Z"/><path class="cls-2" d="M90.91,45.85q4.41,3.39,4.41,10.36,0,7.95-8.28,12T66.33,74q0,8.5,2.83,11.94a8.71,8.71,0,0,0,7,3.43,15.39,15.39,0,0,0,7.63-2.23q3.92-2.23,6.54-8.23l6.1,2.94Q92,91.86,86.16,95.61a24.11,24.11,0,0,1-13.29,3.76q-10.14,0-15.81-6T51.39,75.61a40.73,40.73,0,0,1,3.06-15.26A31.22,31.22,0,0,1,63.71,47.6,23.17,23.17,0,0,1,79,42.47Q86.49,42.47,90.91,45.85ZM70.09,54.68a33.32,33.32,0,0,0-3.44,12.21q8.3-1.53,12.1-4.63a9.24,9.24,0,0,0,3.82-7.36A5,5,0,0,0,81.1,51a4.86,4.86,0,0,0-3.33-1.31Q72.76,49.67,70.09,54.68Z"/><path class="cls-2" d="M142.08,46.07a11.15,11.15,0,0,1,5,9.48,7.58,7.58,0,0,1-2,5.45,6.87,6.87,0,0,1-5.23,2.07A5.88,5.88,0,0,1,135,61a7,7,0,0,1-1.63-4.36,9.61,9.61,0,0,1,1.09-4.57,4.34,4.34,0,0,0-2-1.69,7.15,7.15,0,0,0-3.27-.71q-6.43,0-9,7.79a52.36,52.36,0,0,0-2.62,16.73q0,8,3,11.56a9,9,0,0,0,7,3.59,13.15,13.15,0,0,0,7.41-2.5q3.7-2.5,6.54-8.83l6.22,3q-4.37,10-10.3,14.11A23.77,23.77,0,0,1,124,99.37q-9.93-.11-15.65-6.05t-5.72-17.71a41.13,41.13,0,0,1,3-15.21,31.7,31.7,0,0,1,9.16-12.8,22,22,0,0,1,14.61-5.13Q137.06,42.47,142.08,46.07Z"/><path class="cls-2" d="M175.38,45.74q2.34,3.27,2.34,9.38a82.75,82.75,0,0,1-.87,9.86c-.58,4.4-.94,7.21-1.09,8.45q-.22,1.41-.87,6.27a59.32,59.32,0,0,0-.66,6.7c0,1.89.55,2.83,1.64,2.83q2.94,0,5.34-8.61l5.89,1.75a24.93,24.93,0,0,1-2.84,7.52,22.3,22.3,0,0,1-5.67,6.7,12.57,12.57,0,0,1-8.06,2.78q-5.78,0-8.12-3.05t-2.35-9.27q0-4.9,2-17.33a117.91,117.91,0,0,0,1.63-14.28c0-1.88-.58-2.83-1.74-2.83q-2.83,0-5.23,8.61l-5.89-1.74A24.82,24.82,0,0,1,153.69,52a22.64,22.64,0,0,1,5.77-6.76,12.84,12.84,0,0,1,8.13-2.78Q173,42.47,175.38,45.74Zm1.69-28.28a8.94,8.94,0,0,1,2.18,6.16,9.4,9.4,0,0,1-2.45,6.59,7.91,7.91,0,0,1-6.05,2.67,7.62,7.62,0,0,1-5.84-2.4,8.42,8.42,0,0,1-2.23-6,9.39,9.39,0,0,1,2.67-6.65A8.14,8.14,0,0,1,171.4,15,7.24,7.24,0,0,1,177.07,17.46Z"/><path class="cls-2" d="M243.59,47.88q4.26,5.65,4.26,15.14a46.87,46.87,0,0,1-3.49,18.68,28.35,28.35,0,0,1-10.45,12.75q-7,4.64-17.27,4.63c-1.55,0-2.73,0-3.54-.11l-.44,8.93q-.33,5.44-.89,9.81c2.36-.22,4.8-.33,7.3-.33v8.28h-28v-7.08q3.77,0,5.15-2.4a18.82,18.82,0,0,0,1.83-7.41q3.87-41.17,3.87-53.27c0-2.1-.55-3.16-1.66-3.16q-2.88,0-5.31,8.61l-6-1.74a30.75,30.75,0,0,1,4.82-11.72,11.44,11.44,0,0,1,10-5.28,9.34,9.34,0,0,1,6.59,2.29c1.66,1.52,2.49,4.07,2.49,7.62a51.19,51.19,0,0,1-.44,6.54h.11q3.54-8.92,8.63-12.69a17.18,17.18,0,0,1,10.29-3.76Q239.33,42.21,243.59,47.88ZM218.16,62.31q-3.37,9.91-4.9,29.21a15.64,15.64,0,0,0,4.35.66,10.18,10.18,0,0,0,8.94-5A30.76,30.76,0,0,0,231,75.66a68.67,68.67,0,0,0,1.2-12.26q0-11-5.34-11T218.16,62.31Z"/><path class="cls-3" d="M276.2,18.57a7.41,7.41,0,0,1,1.8,5.1,7.75,7.75,0,0,1-2,5.47,6.53,6.53,0,0,1-5,2.22,6.32,6.32,0,0,1-4.83-2,7,7,0,0,1-1.85-5,7.78,7.78,0,0,1,2.21-5.52,6.77,6.77,0,0,1,5-2.35A6,6,0,0,1,276.2,18.57Z"/><polygon class="cls-3" points="263.57 97.24 263.57 51.16 252.57 51.15 252.57 44.16 272.57 44.16 272.61 90.16 285.57 90.16 285.57 97.16 263.57 97.24"/><path class="cls-3" d="M316,97.89q-10.53,0-16.85-7.66T292.8,70.92q0-11.65,6.32-19.29T316,44q10.48,0,16.81,7.64t6.32,19.29q0,11.65-6.32,19.31T316,97.89Zm0-7.08a12.21,12.21,0,0,0,10.4-5.31q3.86-5.3,3.86-14.58t-3.86-14.54a12.89,12.89,0,0,0-20.84,0q-3.86,5.31-3.85,14.54t3.85,14.58A12.26,12.26,0,0,0,316,90.81Z"/></g></svg>