<svg xmlns="http://www.w3.org/2000/svg" viewBox="0 0 2046.65 772.03"><defs><style>.cls-1{fill:#fff;}</style></defs><title>Asset 1</title><g id="Layer_2" data-name="Layer 2"><g id="Layer_1-2" data-name="Layer 1"><path class="cls-1" d="M726.08,161.47c-9.8-14.7-29.5-16.4-50.8-14.7-16.4,1.6-31.1,6.6-34.4,9.8-4.9,1.6-4.9,6.6-4.9,9.8,0,6.6,6.6,14.7,1.6,45.9-1.6,16.4-29.5,160.6-29.5,160.6-14.7,6.6-31.1,14.7-42.6,14.7-21.3,0-31.1-9.8-26.2-41S563.88,209,563.88,209c1.6-19.7,1.6-34.4-1.6-42.6-9.8-14.7-29.5-19.7-50.8-16.4-16.4,1.6-31.1,6.6-34.4,9.8-4.9,1.6-4.9,6.6-4.9,9.8,0,6.6,6.6,14.7,1.6,45.9-9.8,55.7-24.6,137.6-26.2,154-9.8,62.3,9.8,108.1,70.5,108.1,14.7,0,50.8-9.8,83.6-24.6,0,4.9,1.6,9.8,4.9,11.5,16.4,26.2,72.1,14.7,86.8,6.6,4.9-1.6,4.9-6.6,4.9-9.8,0-6.6-6.6-14.7-1.6-45.9,1.6-16.4,36-206.4,36-206.4-.1-21.3-.1-37.6-6.6-47.5Zm935.5-144.1c-9.8-14.7-29.5-19.7-50.8-16.4-16.4,1.6-31.1,6.6-34.4,9.8-4.9,1.6-4.9,6.6-4.9,9.8,0,6.6,6.6,14.7,1.6,45.9-1.6,11.5-62.3,350.6-62.3,350.6-1.6,19.7-1.6,34.4,1.6,42.6,9.8,14.7,29.5,19.7,50.8,16.4,16.4-1.6,31.1-6.6,34.4-9.8,4.9-1.6,4.9-6.6,4.9-9.8,0-6.6-6.6-14.7-1.6-45.9,1.6-16.4,62.3-350.6,62.3-350.6,4.9-16.4,3.3-32.8-1.6-42.6ZM2017.08,368c-14.7-9.8-29.5-11.5-34.4-14.7-4.9,0-6.6,1.6-9.8,4.9-1.6,4.9-16.4,42.6-70.5,86.8,1.6-19.7,41-237.6,41-237.6,4.9-19.7,4.9-36-1.6-45.9-9.8-14.7-29.5-19.7-50.8-16.4-16.4,1.6-31.1,6.6-34.4,9.8-1.6,4.9-4.9,6.6-4.9,11.5,0,6.6,4.9,11.5,1.6,36l-29.5,168.8c-14.7,9.8-31.1,14.7-45.9,14.7-21.3,0-31.1-9.8-26.2-41,4.9-24.6,24.6-137.6,24.6-137.6,1.6-19.7,1.6-34.4-1.6-42.6-14.7-26.2-67.2-19.7-83.6-6.6-4.9,1.6-4.9,6.6-4.9,9.8,0,6.6,6.6,14.7,1.6,41-9.8,55.7-26.2,142.5-29.5,160.6-9.8,62.3,9.8,108.1,70.5,108.1,14.7,0,47.5-9.8,81.9-24.6l-6.6,47.5c-4.9,1.6-91.8,31.1-127.8,47.5-65.5,29.5-96.7,113-45.9,165.5,47.5,52.4,127.8,24.6,154,4.9,60.6-41,86.8-111.4,103.2-178.6,81.9-42.6,132.7-91.8,132.7-91.8,14.7-11.5,24.6-24.6,26.2-36,1.7-17.8-9.7-32.6-29.4-44ZM1755,644.87c-14.7,11.5-34.4,9.8-41,0-6.6-6.6-9.8-31.1,26.2-42.6,26.2-9.8,52.4-21.3,52.4-21.3-6.5,24.5-22.9,54-37.6,63.9Zm-267.1-401.4c6.6-34.4,1.6-55.7-4.9-70.5-11.5-24.6-31.1-29.5-55.7-31.1-29.5-1.6-75.4,19.7-101.6,34.4-6.6-19.7-29.5-34.4-57.3-34.4-34.4,0-81.9,24.6-98.3,34.4-9.8-24.6-31.1-31.1-55.7-34.4-34.4-1.6-77,19.7-101.6,34.4-9.8-24.6-31.1-31.1-55.7-34.4-29.5-1.6-62.3,14.7-91.8,26.2-6.6-21.3-31.1-24.6-52.4-21.3-16.4,1.6-31.1,6.6-34.4,9.8-4.9,1.6-4.9,6.6-4.9,9.8,0,6.6,4.9,11.5,1.6,36l-37.7,216.3c-1.6,19.7-1.6,34.4,1.6,42.6,9.8,14.7,29.5,19.7,50.8,16.4,16.4-1.6,31.1-6.6,34.4-9.8,4.9-1.6,4.9-6.6,4.9-9.8,0-6.6-6.6-16.4-1.6-34.4l31.1-178.6c11.5-9.8,31.1-16.4,41-16.4,19.7,0,26.2,11.5,21.3,37.7l-26.2,149.1c-1.6,19.7-1.6,34.4,1.6,42.6,9.8,14.7,29.5,19.7,50.8,16.4,16.4-1.6,31.1-6.6,34.4-9.8,4.9-1.6,4.9-6.6,4.9-9.8,0-6.6-6.6-14.7-1.6-34.4s31.1-180.2,31.1-180.2c11.5-9.8,31.1-16.4,41-16.4,19.7,0,26.2,11.5,21.3,37.7-6.6,47.5-1.6,9.8-26.2,149.1-1.6,19.7-1.6,34.4,1.6,42.6,9.8,14.7,29.5,19.7,50.8,16.4,16.4-1.6,31.1-6.6,34.4-9.8,4.9-1.6,4.9-6.6,4.9-9.8,0-6.6-4.9-11.5-1.6-36l31.1-175.3c6.6-4.9,29.5-16.4,41-16.4,19.7,0,24.6,14.7,19.7,41-1.6,14.7-26.2,147.5-26.2,147.5-1.6,19.7-1.6,34.4,1.6,42.6,6.6,11.5,21.3,16.4,41,16.4h9.8c16.4-1.6,31.1-6.6,34.4-9.8,4.9-1.6,4.9-6.6,4.9-9.8,0-6.6-6.6-14.7-1.6-45.9,0-1.6,9.8-62.3,19.7-111.4l9.8-57.3c11.5-9.8,31.1-16.4,41-16.4,19.7,0,26.2,11.5,21.3,37.7l-24.6,149.1c-1.6,19.7-1.6,34.4,1.6,42.6,9.8,14.7,29.5,19.7,50.8,16.4,16.4-1.6,31.1-6.6,34.4-9.8,4.9-1.6,4.9-6.6,4.9-9.8,0-6.6-6.6-14.7-1.6-45.9,4.9,11,32.7-156.1,32.7-156.1Zm-883.1,324.4c0-4.9-4.9-6.6-6.6-6.6-6.6-1.6-14.7,0-34.4-9.8-16.4-6.6-91.7-42.6-195-55.7l75.4-427.6c1.6-19.7,1.6-34.4-1.6-42.6-9.8-14.7-29.5-19.7-50.8-16.4-16.4,1.6-31.1,6.5-34.4,9.8-4.9,1.6-4.9,6.6-4.9,9.8,0,6.6,6.6,14.7,1.6,45.9,0,6.6-26.2,144.2-45.9,260.5-55.7,34.4-127.8,47.5-144.2,29.5-6.6-9.8-4.9-29.5,1.6-55.7,1.6-6.6,34.4-127.8,42.6-163.8,14.7-70.5,1.6-132.7-67.2-137.6C80.48,2.57,23.18,37,6.78,55c-11.5,14.8-6.6,29.5,1.6,47.6,9.8,14.7,21.3,24.6,24.6,26.2,4.9,1.6,9.8,1.6,9.8,0,19.7-21.3,57.3-37.7,70.5-29.5,11.5,9.8,6.6,26.2,1.6,42.6,0,0-37.7,147.5-55.7,209.7-11.5,45.9,0,86.8,34.4,106.5,24.6,14.7,60.6,14.7,88.5,9.8,62.3-6.6,98.3-34.4,106.5-37.7-6.6,37.7-11.5,65.5-11.5,65.5s-70.5,6.6-127.8,41c-77,45.9-106.5,149.1-57.3,201.5,47.5,52.4,134.3,34.4,168.8,9.8,34.4-21.3,77-70.5,96.7-175.3,114.7,4.9,144.2,65.5,191.7,67.2,37.6-3.2,60.5-36,55.6-72Zm-388.3,103.2c-16.4,9.8-34.4,9.8-42.6,0-9.8-11.5-14.7-78.6,93.4-101.6-1.6,0-18,81.9-50.8,101.6Z"/></g></g></svg>